<?xml version="1.0" encoding="UTF-8" standalone="no"?>
<!-- Created with Inkscape (http://www.inkscape.org/) -->

<svg
   version="1.1"
   id="svg19488"
   xml:space="preserve"
   width="682.66669"
   height="682.66669"
   viewBox="0 0 682.66669 682.66669"
   xmlns="http://www.w3.org/2000/svg"
   xmlns:svg="http://www.w3.org/2000/svg"><defs
     id="defs19492"><linearGradient
       x1="0"
       y1="0"
       x2="1"
       y2="0"
       gradientUnits="userSpaceOnUse"
       gradientTransform="matrix(271.24478,271.24478,271.24478,-271.24478,171.20987,160.52507)"
       spreadMethod="pad"
       id="linearGradient19514"><stop
         style="stop-opacity:1;stop-color:#ffdbed"
         offset="0"
         id="stop19508" /><stop
         style="stop-opacity:1;stop-color:#dcfdee"
         offset="0.97070415"
         id="stop19510" /><stop
         style="stop-opacity:1;stop-color:#dcfdee"
         offset="1"
         id="stop19512" /></linearGradient><clipPath
       clipPathUnits="userSpaceOnUse"
       id="clipPath19524"><path
         d="M 0,512 H 512 V 0 H 0 Z"
         id="path19522" /></clipPath><clipPath
       clipPathUnits="userSpaceOnUse"
       id="clipPath19532"><path
         d="M 58.4429,464.728 H 453.557 V 22.2295 H 58.4429 Z"
         id="path19530" /></clipPath></defs><g
     id="g19494"
     transform="matrix(1.3333333,0,0,-1.3333333,0,682.66667)"><g
       id="g19496"><g
         id="g19498"><g
           id="g19504"><g
             id="g19506"><path
               d="M 139.468,512 C 59.978,511.826 -66.713,404.736 106.62,304.742 v 0 c 26.891,-15.514 18.218,-46.318 19.542,-75.165 v 0 c 3.015,-65.69 86.764,16.254 111.999,-100.641 v 0 C 256.214,45.306 335.502,0.078 400.745,0 v 0 h 0.29 c 71.043,0.066 125.287,53.749 65.419,169.781 v 0 c -17.485,33.887 -55.508,74.984 -36.84,110.092 v 0 c 35.794,67.316 59.936,123.745 -35.928,130.604 v 0 c -25.096,1.796 -14.735,24.259 -8.419,43.152 v 0 c 19.461,58.212 -56.835,72.094 -70.498,-0.872 v 0 c -7.028,-37.525 -52.792,-68.856 -92.873,-64.691 v 0 c -51.563,5.356 -22.919,59.248 -33.452,93.72 v 0 C 182.02,502.809 162.958,511.942 139.867,512 v 0 z"
               style="fill:url(#linearGradient19514);stroke:none"
               id="path19516" /></g></g></g></g><g
       id="g19518"><g
         id="g19520"
         clip-path="url(#clipPath19524)"><g
           id="g19526"><g
             id="g19528" /><g
             id="g19540"><g
               clip-path="url(#clipPath19532)"
               opacity="0.100006"
               id="g19538"><g
                 transform="translate(374.6133,377.7803)"
                 id="g19536"><path
                   d="m 0,0 c 1.741,24.022 0.84,45.85 0.143,56.761 -0.254,3.986 -3.671,7.011 -7.66,6.792 -18.59,-1.027 -69.835,-1.347 -107.206,22.266 -2.381,1.504 -5.4,1.504 -7.781,0 -37.371,-23.613 -88.615,-23.293 -107.206,-22.266 -3.988,0.219 -7.405,-2.806 -7.659,-6.792 -0.697,-10.911 -1.599,-32.739 0.142,-56.761 -47.937,-36.047 -78.943,-93.397 -78.943,-157.994 0,-109.108 88.449,-197.557 197.557,-197.557 109.107,0 197.556,88.449 197.556,197.557 C 78.943,-93.397 47.938,-36.047 0,0"
                   style="fill:#2626bc;fill-opacity:1;fill-rule:nonzero;stroke:none"
                   id="path19534" /></g></g></g></g><g
           id="g19542"
           transform="translate(453.5566,243.7861)"><path
             d="m 0,0 c 0,-109.107 -88.449,-197.557 -197.557,-197.557 -109.107,0 -197.556,88.45 -197.556,197.557 0,109.108 88.449,197.558 197.556,197.558 C -88.449,197.558 0,109.108 0,0"
             style="fill:#b7c5ff;fill-opacity:1;fill-rule:nonzero;stroke:none"
             id="path19544" /></g><g
           id="g19546"
           transform="translate(375.5898,401.04)"><path
             d="m 0,0 c -0.25,-19.75 -1.93,-43.84 -7.22,-65.53 -25.36,-104.09 -101.139,-119.58 -111.25,-121.199 -0.75,-0.122 -1.49,-0.122 -2.24,0 -10.11,1.619 -85.89,17.109 -111.25,121.199 -5.29,21.69 -6.97,45.78 -7.22,65.53 33.201,25.29 74.64,40.3 119.59,40.3 C -74.64,40.3 -33.199,25.29 0,0"
             style="fill:#9fb0fe;fill-opacity:1;fill-rule:nonzero;stroke:none"
             id="path19548" /></g><g
           id="g19550"
           transform="translate(318.5303,248.7861)"><path
             d="m 0,0 c -0.301,42.159 -4.413,82.153 -11.767,115.359 18.723,0.969 36.545,2.477 53.028,4.484 C 60.893,87.383 73.037,45.645 73.866,0 Z m 41.261,-129.841 c -16.48,2.008 -34.302,3.517 -53.027,4.486 C -4.412,-92.149 -0.301,-52.157 0,-10 H 73.866 C 73.037,-55.644 60.893,-97.382 41.261,-129.841 m -81.004,-65.015 c 8.596,10.263 16.26,26.636 22.706,48.764 1.022,3.51 2.002,7.127 2.938,10.844 17.337,-0.861 33.895,-2.188 49.317,-3.946 -19.776,-28.682 -45.811,-48.716 -74.961,-55.662 m -22.787,-2.701 c -12.577,0 -25.995,20.285 -35.893,54.262 -0.805,2.762 -1.578,5.601 -2.328,8.496 12.433,0.479 25.213,0.727 38.221,0.727 13.008,0 25.788,-0.248 38.22,-0.727 -0.75,-2.895 -1.523,-5.734 -2.328,-8.496 -9.897,-33.977 -23.315,-54.262 -35.892,-54.262 m -97.748,58.363 c 15.422,1.758 31.979,3.085 49.316,3.946 0.937,-3.717 1.916,-7.334 2.939,-10.844 6.446,-22.128 14.11,-38.501 22.706,-48.764 -29.151,6.946 -55.186,26.98 -74.961,55.662 M -198.927,-10 h 73.866 c 0.301,-42.157 4.413,-82.149 11.766,-115.355 -18.725,-0.969 -36.547,-2.478 -53.026,-4.486 -19.632,32.459 -31.777,74.197 -32.606,119.841 m 32.606,129.843 c 16.482,-2.007 34.304,-3.515 53.027,-4.484 C -120.647,82.153 -124.76,42.159 -125.061,0 h -73.866 c 0.829,45.645 12.974,87.383 32.606,119.843 m 81.004,65.014 c -8.596,-10.263 -16.26,-26.637 -22.706,-48.764 -1.023,-3.509 -2.001,-7.125 -2.937,-10.84 -17.336,0.86 -33.894,2.185 -49.317,3.944 19.775,28.681 45.81,48.714 74.96,55.66 m 22.787,2.701 c 12.577,0 25.995,-20.286 35.892,-54.262 0.804,-2.761 1.578,-5.599 2.327,-8.492 -12.433,-0.479 -25.212,-0.727 -38.219,-0.727 -13.007,0 -25.786,0.248 -38.22,0.727 0.749,2.893 1.523,5.731 2.327,8.492 9.898,33.976 23.316,54.262 35.893,54.262 M -10,-10 c -0.306,-42.181 -4.466,-82.075 -11.902,-114.886 -13.2,0.537 -26.792,0.814 -40.628,0.814 -13.836,0 -27.429,-0.277 -40.628,-0.814 -7.437,32.811 -11.597,72.705 -11.903,114.886 z M -115.061,0 c 0.306,42.183 4.466,82.079 11.904,114.891 13.2,-0.538 26.792,-0.814 40.627,-0.814 13.835,0 27.426,0.276 40.627,0.814 C -14.466,82.079 -10.306,42.183 -10,0 Z M 35.217,129.197 c -15.424,-1.759 -31.982,-3.084 -49.318,-3.944 -0.935,3.715 -1.914,7.331 -2.936,10.84 -6.446,22.127 -14.11,38.501 -22.706,48.764 29.149,-6.946 55.184,-26.979 74.96,-55.66 m 16.842,-7.941 c 10.516,1.477 20.405,3.168 29.52,5.066 0.924,0.193 1.722,0.642 2.366,1.241 -2.451,2.706 -4.98,5.34 -7.576,7.907 -9.281,-1.847 -19.33,-3.485 -30.015,-4.903 -1.558,2.39 -3.158,4.738 -4.804,7.037 -16.204,22.633 -35.593,39.302 -56.794,49.243 -15.152,3.722 -30.985,5.711 -47.286,5.711 -16.301,0 -32.134,-1.989 -47.286,-5.711 -21.202,-9.941 -40.59,-26.61 -56.794,-49.243 -1.647,-2.299 -3.246,-4.647 -4.804,-7.037 -10.686,1.418 -20.734,3.056 -30.016,4.903 -2.595,-2.567 -5.125,-5.201 -7.576,-7.907 0.645,-0.599 1.443,-1.048 2.366,-1.241 9.116,-1.898 19.004,-3.589 29.521,-5.066 C -197.013,86.808 -208.153,44.602 -208.929,0 h -51.095 c -0.041,-1.661 -0.063,-3.328 -0.063,-5 0,-1.672 0.022,-3.338 0.063,-5 h 51.095 c 0.776,-44.602 11.916,-86.807 31.81,-121.256 -10.519,-1.478 -20.407,-3.172 -29.522,-5.072 -0.921,-0.193 -1.718,-0.64 -2.362,-1.237 2.451,-2.706 4.981,-5.341 7.577,-7.909 9.279,1.849 19.325,3.489 30.011,4.908 1.558,-2.39 3.157,-4.738 4.805,-7.038 16.204,-22.633 35.592,-39.302 56.794,-49.243 15.151,-3.721 30.985,-5.71 47.286,-5.71 16.301,0 32.134,1.989 47.286,5.71 21.201,9.941 40.59,26.61 56.794,49.243 1.647,2.3 3.247,4.648 4.804,7.038 10.686,-1.419 20.733,-3.059 30.011,-4.908 2.597,2.568 5.126,5.203 7.577,7.909 -0.643,0.597 -1.44,1.044 -2.362,1.237 -9.114,1.9 -19.003,3.594 -29.521,5.072 19.893,34.449 31.034,76.654 31.809,121.256 h 51.096 c 0.041,1.662 0.062,3.328 0.062,5 0,1.672 -0.021,3.339 -0.062,5 H 83.868 C 83.093,44.602 71.952,86.808 52.059,121.256"
             style="fill:#6583fe;fill-opacity:1;fill-rule:nonzero;stroke:none"
             id="path19552" /></g><g
           id="g19554"
           transform="translate(366.4297,276.7061)"><path
             d="m 0,0 v -110.68 c 0,-11.049 -8.96,-20 -20,-20 h -180.859 c -11.04,0 -20,8.951 -20,20 V 0 c 0,11.051 8.96,20 20,20 H -20 C -8.96,20 0,11.051 0,0"
             style="fill:#ffffff;fill-opacity:1;fill-rule:nonzero;stroke:none"
             id="path19556" /></g><g
           id="g19558"
           transform="translate(354.2803,295.1094)"><path
             d="m 0,0 c -32.13,-67.939 -88.54,-79.42 -97.16,-80.799 -0.75,-0.121 -1.49,-0.121 -2.24,0 -8.621,1.379 -65.031,12.86 -97.161,80.799 2.411,1.031 5.061,1.601 7.851,1.601 H -7.851 C -5.061,1.601 -2.41,1.031 0,0"
             style="fill:#dcfdee;fill-opacity:1;fill-rule:nonzero;stroke:none"
             id="path19560" /></g><g
           id="g19562"
           transform="translate(318.5303,248.7861)"><path
             d="M 0,0 C -0.117,16.395 -0.817,32.453 -2.054,47.921 H -12.081 C -10.829,32.479 -10.119,16.417 -10,0 h -105.061 c 0.12,16.417 0.83,32.479 2.082,47.921 h -10.028 C -124.243,32.453 -124.943,16.395 -125.061,0 h -47.899 v -10 h 47.899 c 0.236,-32.989 2.815,-64.637 7.445,-92.76 h 10.129 c -4.709,27.971 -7.334,59.653 -7.574,92.76 H -10 c -0.239,-33.107 -2.864,-64.789 -7.573,-92.76 H -7.444 C -2.814,-74.637 -0.235,-42.989 0,-10 H 47.899 V 0 Z"
             style="fill:#dcfdee;fill-opacity:1;fill-rule:nonzero;stroke:none"
             id="path19564" /></g><g
           id="g19566"
           transform="translate(203.4697,238.7861)"><path
             d="m 0,0 h 105.061 c -0.003,-0.397 -0.011,-0.792 -0.015,-1.19 4.342,3.264 8.737,6.975 13.097,11.19 h -3.082 c -0.118,16.395 -0.818,32.453 -2.054,47.921 H 102.979 C 104.231,42.479 104.941,26.417 105.061,10 H 0 C 0.119,26.417 0.829,42.479 2.082,57.921 H -7.946 C -9.183,42.453 -9.883,26.395 -10,10 h -3.082 C -8.723,5.785 -4.327,2.074 0.015,-1.19 0.011,-0.792 0.003,-0.397 0,0"
             style="fill:#97ffd2;fill-opacity:1;fill-rule:nonzero;stroke:none"
             id="path19568" /></g><g
           id="g19570"
           transform="translate(366.4297,276.71)"><path
             d="M 0,0 V -20.91 H -220.859 V 0 c 0,11.04 8.96,20 20,20 H -20 C -8.96,20 0,11.04 0,0"
             style="fill:#01eca5;fill-opacity:1;fill-rule:nonzero;stroke:none"
             id="path19572" /></g><g
           id="g19574"
           transform="translate(354.2803,295.1094)"><path
             d="m 0,0 c -7.591,-16.049 -16.54,-28.949 -25.89,-39.31 h -144.78 c -9.351,10.361 -18.3,23.261 -25.891,39.31 2.411,1.031 5.061,1.601 7.851,1.601 H -7.851 C -5.061,1.601 -2.41,1.031 0,0"
             style="fill:#00d890;fill-opacity:1;fill-rule:nonzero;stroke:none"
             id="path19576" /></g><g
           id="g19578"
           transform="translate(195.5195,296.71)"><path
             d="M 0,0 H 10.03 C 8.961,-13.229 8.28,-26.93 8.041,-40.91 h -10 C -1.72,-26.95 -1.05,-13.26 0,0"
             style="fill:#00b574;fill-opacity:1;fill-rule:nonzero;stroke:none"
             id="path19580" /></g><g
           id="g19582"
           transform="translate(318.4395,255.7998)"><path
             d="m 0,0 h -10 c -0.239,13.98 -0.92,27.681 -1.989,40.91 h 10.03 C -0.909,27.65 -0.239,13.96 0,0"
             style="fill:#00b574;fill-opacity:1;fill-rule:nonzero;stroke:none"
             id="path19584" /></g><g
           id="g19586"
           transform="translate(367.0967,465.333)"><path
             d="m 0,0 c -18.591,-1.026 -69.835,-1.347 -107.206,22.267 -2.381,1.504 -5.4,1.504 -7.781,0 C -152.358,-1.347 -203.603,-1.026 -222.193,0 c -3.989,0.22 -7.405,-2.806 -7.66,-6.792 -1.101,-17.232 -2.719,-61.68 6.382,-99.026 25.368,-104.096 101.14,-119.586 111.254,-121.203 0.745,-0.12 1.495,-0.12 2.24,0 10.115,1.617 85.886,17.107 111.254,121.203 9.102,37.346 7.484,81.794 6.382,99.026 C 7.404,-2.806 3.988,0.22 0,0"
             style="fill:#ff5ba8;fill-opacity:1;fill-rule:nonzero;stroke:none"
             id="path19588" /></g><g
           id="g19590"
           transform="translate(436.5205,335.7598)"><path
             d="m 0,0 c -13.536,26.512 -33.128,50.077 -56.741,68.338 1.511,23.227 0.65,44.068 -0.033,54.761 -0.426,6.692 -6.217,11.83 -12.925,11.466 -19.424,-1.07 -68.454,-1.123 -104.261,21.502 -3.984,2.518 -9.136,2.519 -13.122,-0.001 -35.807,-22.625 -84.84,-22.573 -104.26,-21.501 -6.69,0.364 -12.498,-4.774 -12.925,-11.464 -0.683,-10.695 -1.544,-31.536 -0.034,-54.763 -23.612,-18.261 -43.204,-41.826 -56.74,-68.338 -14.624,-28.644 -22.039,-59.586 -22.039,-91.97 0,-111.691 90.868,-202.559 202.559,-202.559 82.015,0 155.418,48.914 187.004,124.613 1.064,2.549 -0.14,5.477 -2.688,6.54 -2.55,1.064 -5.477,-0.141 -6.54,-2.688 -30.027,-71.965 -99.809,-118.465 -177.776,-118.465 -106.177,0 -192.559,86.382 -192.559,192.559 0,58.036 25.319,111.574 69.767,148.3 1.133,-11.287 2.894,-22.814 5.561,-33.759 5.836,-23.95 14.799,-45.184 26.638,-63.114 1.521,-2.304 4.624,-2.938 6.927,-1.418 2.305,1.523 2.94,4.624 1.418,6.928 -11.204,16.967 -19.705,37.144 -25.268,59.971 -8.926,36.627 -7.344,80.404 -6.249,97.526 0.079,1.235 1.183,2.174 2.393,2.117 20.382,-1.127 71.909,-1.132 110.152,23.031 0.754,0.477 1.688,0.476 2.44,0.001 38.243,-24.165 89.769,-24.158 110.153,-23.032 1.233,0.042 2.314,-0.881 2.393,-2.119 1.095,-17.12 2.677,-60.897 -6.249,-97.524 -24.725,-101.456 -98.818,-116.111 -107.185,-117.448 -0.223,-0.035 -0.44,-0.035 -0.663,0 -5.764,0.921 -35.936,6.947 -63.949,35.252 -1.942,1.962 -5.109,1.979 -7.071,0.036 -1.962,-1.942 -1.979,-5.108 -0.036,-7.071 30.202,-30.516 63.176,-37.085 69.478,-38.092 0.633,-0.101 1.272,-0.151 1.909,-0.151 0.638,0 1.276,0.05 1.91,0.151 6.155,0.984 28.099,5.554 52.068,23.072 31.022,22.673 52.305,56.953 63.254,101.884 2.667,10.945 4.428,22.472 5.561,33.759 44.448,-36.726 69.767,-90.264 69.767,-148.3 0,-15.879 -1.944,-31.673 -5.779,-46.942 -0.673,-2.678 0.953,-5.395 3.632,-6.067 0.409,-0.103 0.818,-0.152 1.221,-0.152 2.239,0 4.276,1.514 4.846,3.783 4.034,16.065 6.08,32.678 6.08,49.378 C 22.039,-59.586 14.624,-28.644 0,0"
             style="fill:#2626bc;fill-opacity:1;fill-rule:nonzero;stroke:none"
             id="path19592" /></g><g
           id="g19594"
           transform="translate(256.001,267.7686)"><path
             d="m 0,0 c -14.747,3.478 -65.136,20.888 -84.084,98.641 -5.637,23.131 -6.589,50.398 -6.365,69.55 26.362,0.679 60.371,5.153 90.448,20.41 30.078,-15.258 64.087,-19.732 90.448,-20.41 0.224,-19.15 -0.728,-46.419 -6.365,-69.55 C 65.131,20.877 14.733,3.474 0,0"
             style="fill:#ff7eb8;fill-opacity:1;fill-rule:nonzero;stroke:none"
             id="path19596" /></g><g
           id="g19598"
           transform="translate(256,456.3691)"><path
             d="M 0,0 C 30.078,-15.258 64.087,-19.731 90.448,-20.409 90.672,-39.56 89.72,-66.828 84.083,-89.96 65.132,-167.724 14.734,-185.127 0.001,-188.601 Z"
             style="fill:#ffa8cf;fill-opacity:1;fill-rule:nonzero;stroke:none"
             id="path19600" /></g><g
           id="g19602"
           transform="translate(223.3506,223.334)"><path
             d="m 0,0 c -3.454,1.458 -7.44,-0.165 -8.896,-3.622 l -13.367,-31.714 -13.366,31.714 c -1.457,3.459 -5.44,5.082 -8.896,3.622 -3.457,-1.457 -5.079,-5.44 -3.621,-8.896 l 19.625,-46.567 c 1.061,-2.517 3.527,-4.154 6.258,-4.154 2.732,0 5.198,1.637 6.259,4.154 L 3.621,-8.896 C 5.078,-5.44 3.457,-1.457 0,0"
             style="fill:#01eca5;fill-opacity:1;fill-rule:nonzero;stroke:none"
             id="path19604" /></g><g
           id="g19606"
           transform="translate(265.1309,198.6475)"><path
             d="M 0,0 C 0,-1.937 -1.577,-3.516 -3.517,-3.516 H -14.853 V 11.636 H -3.517 C -1.577,11.636 0,10.059 0,8.12 Z m -3.517,25.22 h -18.128 c -3.751,0 -6.792,-3.041 -6.792,-6.792 v -46.567 c 0,-3.752 3.041,-6.792 6.792,-6.792 3.752,0 6.792,3.04 6.792,6.792 V -17.1 h 11.336 c 9.429,0 17.101,7.671 17.101,17.1 v 8.12 c 0,9.43 -7.672,17.1 -17.101,17.1"
             style="fill:#01eca5;fill-opacity:1;fill-rule:nonzero;stroke:none"
             id="path19608" /></g><g
           id="g19610"
           transform="translate(273.7803,218.7803)"><path
             d="m 0,0 c -8.2,-2.931 -14.271,-4.091 -16.66,-4.47 -0.75,-0.121 -1.49,-0.121 -2.24,0 -2.5,0.4 -9.04,1.659 -17.84,4.89 0.88,2.71 3.429,4.67 6.45,4.67 h 18.12 C -7.42,5.09 -3.11,3.14 0,0"
             style="fill:#00d890;fill-opacity:1;fill-rule:nonzero;stroke:none"
             id="path19612" /></g><g
           id="g19614"
           transform="translate(330.5391,223.8672)"><path
             d="M 0,0 C -3.752,0 -6.792,-3.041 -6.792,-6.792 V -32.946 L -29.41,-2.723 c -1.751,2.341 -4.808,3.3 -7.581,2.375 -2.778,-0.923 -4.649,-3.519 -4.649,-6.444 v -46.566 c 0,-3.752 3.04,-6.792 6.792,-6.792 3.751,0 6.792,3.04 6.792,6.792 v 26.154 l 22.619,-30.225 c 1.306,-1.746 3.338,-2.721 5.438,-2.721 0.715,0 1.438,0.112 2.144,0.347 2.775,0.923 4.647,3.519 4.647,6.445 V -6.792 C 6.792,-3.041 3.751,0 0,0"
             style="fill:#01eca5;fill-opacity:1;fill-rule:nonzero;stroke:none"
             id="path19616" /></g><g
           id="g19618"
           transform="translate(103.7773,412.4297)"><path
             d="M 0,0 -9,9 -18,0"
             style="fill:none;stroke:#8399fe;stroke-width:10;stroke-linecap:round;stroke-linejoin:round;stroke-miterlimit:10;stroke-dasharray:none;stroke-opacity:1"
             id="path19620" /></g><g
           id="g19622"
           transform="translate(137.6035,44.9297)"><path
             d="M 0,0 -9,9 -18,0"
             style="fill:none;stroke:#01eca5;stroke-width:10;stroke-linecap:round;stroke-linejoin:round;stroke-miterlimit:10;stroke-dasharray:none;stroke-opacity:1"
             id="path19624" /></g><g
           id="g19626"
           transform="translate(413.6436,404.3066)"><path
             d="M 0,0 C 9.793,2.783 10.5,18.748 10.5,18.748 L 0,22 -10.5,18.748 C -10.5,18.748 -9.792,2.783 0,0 Z"
             style="fill:none;stroke:#ff7eb8;stroke-width:10;stroke-linecap:round;stroke-linejoin:round;stroke-miterlimit:10;stroke-dasharray:none;stroke-opacity:1"
             id="path19628" /></g><g
           id="g19630"
           transform="translate(84.2773,64.8145)"><path
             d="M 0,0 C 9.792,2.784 10.5,18.748 10.5,18.748 L 0,22 -10.5,18.748 C -10.5,18.748 -9.793,2.784 0,0 Z"
             style="fill:none;stroke:#ff7eb8;stroke-width:10;stroke-linecap:round;stroke-linejoin:round;stroke-miterlimit:10;stroke-dasharray:none;stroke-opacity:1"
             id="path19632" /></g><g
           id="g19634"
           transform="translate(445.7373,436.6299)"><path
             d="M 0,0 C 9.793,2.783 10.5,18.748 10.5,18.748 L 0,22 -10.5,18.748 C -10.5,18.748 -9.792,2.783 0,0 Z"
             style="fill:none;stroke:#01eca5;stroke-width:10;stroke-linecap:round;stroke-linejoin:round;stroke-miterlimit:10;stroke-dasharray:none;stroke-opacity:1"
             id="path19636" /></g></g></g></g></svg>
